<svg xmlns="http://www.w3.org/2000/svg" viewBox="0 0 219.3 282.73"><defs><style>.cls-1{fill:#f26522;}.cls-2,.cls-7{fill:#231f20;}.cls-3,.cls-4,.cls-6{fill:#fff;}.cls-3,.cls-6{stroke:#231f20;stroke-miterlimit:10;}.cls-5{fill:#00aeef;}.cls-6{stroke-width:0.75px;}.cls-7{font-size:20.04px;font-family:TimesNewRomanPS-BoldMT, Times New Roman;font-weight:700;}.cls-8{letter-spacing:-0.04em;}</style></defs><g id="Layer_2" data-name="Layer 2"><g id="Layer_1-2" data-name="Layer 1"><path class="cls-1" d="M178,24.52l-7.75,32.59-28.14,37-10,13.07L116,128.29h0l-54.81,72L7,271.48l8.5,6.76,54.2-71.19,55.84-73.37h0l15.91-20.91,7.87-10.33L161,87.12l18.75-24.64,27.34-14.79L219.3,0ZM202.28,38.7l-17.54,7.68,3-19.27,18.11-8.94Z"/><polygon class="cls-1" points="205.83 18.17 202.28 38.7 184.74 46.38 187.72 27.11 205.83 18.17"/><polygon class="cls-2" points="205.83 18.17 202.28 38.7 184.74 46.38 187.72 27.11 205.83 18.17"/><path class="cls-1" d="M14.06,52.47,42,67.12l27.9,37.17,9.86,13.15,16,21.28h0l54.33,72.41,53.74,71.6,7.78-7.7-53.74-71.61-55.37-73.78h0l-15.79-21-7.8-10.4L67.34,82.81,48.75,58l-8-32L0,3.76Zm17.6-23L35.15,49.6l-16.84-7-4.52-21Z"/><polygon class="cls-1" points="13.79 21.64 31.66 29.45 35.15 49.6 18.31 42.65 13.79 21.64"/><polygon class="cls-2" points="13.79 21.64 31.66 29.45 35.15 49.6 18.31 42.65 13.79 21.64"/><path class="cls-3" d="M198,94.93,173.48,107,33.42,176.09c-.07-.45-.12-.9-.17-1.35-.08-.65-.17-1.31-.23-2a159.76,159.76,0,0,1-.87-16.67c0-2,0-4,.12-5.92L163.6,85.43l10.72-5.29Z"/><polygon class="cls-3" points="16.1 208.4 177.29 131 177.29 157.19 37.02 224.54 16.1 208.4"/><path class="cls-2" d="M180.48,154.26a158,158,0,0,1-.87,16.58c-.06.65-.14,1.31-.23,1.95s-.15,1.31-.24,2A143.13,143.13,0,0,1,174,198.42c-.17.57-.35,1.12-.53,1.68l-.54,1.67c-12.14,36-37.63,60.74-67.11,60.74s-55-24.77-67.11-60.72c-.18-.56-.37-1.11-.54-1.67s-.36-1.11-.54-1.68a144.62,144.62,0,0,1-5.14-23.7c0-.19-.05-.4-.07-.6-.07-.45-.12-.9-.17-1.35-.08-.64-.17-1.3-.23-1.95a158,158,0,0,1-.87-16.58c0-2,0-3.94.12-5.89q.23-6.42,1-12.64.11-1,.24-1.95t.27-1.95a142.07,142.07,0,0,1,5.32-23.14c.17-.56.35-1.11.53-1.66s.37-1.09.56-1.63C51.49,70.17,76.7,46,105.82,46c22.73,0,43.09,14.73,56.78,38a119.77,119.77,0,0,1,9.66,20.85c.07.21.14.42.22.63s.24.67.35,1c.19.55.37,1.11.55,1.67a141.6,141.6,0,0,1,5.49,23.68q.15,1,.27,1.95t.24,1.95A156.07,156.07,0,0,1,180.48,154.26Z"/><rect class="cls-4" x="94.72" y="247.83" width="21.59" height="4.93"/><rect class="cls-4" x="94.72" y="239.21" width="21.59" height="4.93"/><rect class="cls-4" x="94.72" y="230.59" width="21.59" height="4.93"/><rect class="cls-4" x="94.72" y="221.96" width="21.59" height="4.93"/><rect class="cls-4" x="94.72" y="213.34" width="21.59" height="4.93"/><rect class="cls-4" x="94.72" y="204.72" width="21.59" height="4.93"/><rect class="cls-4" x="94.72" y="196.09" width="21.59" height="4.93"/><rect class="cls-4" x="94.72" y="187.47" width="21.59" height="4.93"/><rect class="cls-4" x="94.72" y="178.85" width="21.59" height="4.93"/><rect class="cls-4" x="94.72" y="170.23" width="21.59" height="4.93"/><rect class="cls-4" x="94.72" y="161.6" width="21.59" height="4.93"/><rect class="cls-4" x="94.72" y="152.98" width="21.59" height="4.93"/><rect class="cls-4" x="94.72" y="144.36" width="21.59" height="4.93"/><rect class="cls-4" x="94.72" y="135.73" width="21.59" height="4.93"/><rect class="cls-4" x="94.72" y="127.11" width="21.59" height="4.93"/><rect class="cls-4" x="94.72" y="118.49" width="21.59" height="4.93"/><rect class="cls-4" x="94.72" y="178.59" width="21.59" height="4.93"/><rect class="cls-4" x="94.72" y="169.97" width="21.59" height="4.93"/><rect class="cls-4" x="94.72" y="161.35" width="21.59" height="4.93"/><rect class="cls-4" x="94.72" y="152.72" width="21.59" height="4.93"/><rect class="cls-4" x="94.72" y="144.1" width="21.59" height="4.93"/><rect class="cls-4" x="94.72" y="135.48" width="21.59" height="4.93"/><rect class="cls-4" x="94.72" y="126.85" width="21.59" height="4.93"/><rect class="cls-4" x="94.72" y="118.23" width="21.59" height="4.93"/><rect class="cls-4" x="94.72" y="109.61" width="21.59" height="4.93"/><rect class="cls-4" x="94.72" y="100.98" width="21.59" height="4.93"/><rect class="cls-4" x="94.72" y="92.36" width="21.59" height="4.93"/><rect class="cls-4" x="94.72" y="83.74" width="21.59" height="4.93"/><rect class="cls-4" x="94.72" y="75.11" width="21.59" height="4.93"/><rect class="cls-4" x="94.72" y="66.49" width="21.59" height="4.93"/><rect class="cls-4" x="94.72" y="57.87" width="21.59" height="4.93"/><rect class="cls-4" x="94.72" y="49.25" width="21.59" height="4.93"/><path class="cls-4" d="M180.48,154.26a158,158,0,0,1-.87,16.58H32a158,158,0,0,1-.87-16.58,156.07,156.07,0,0,1,1.1-18.53q.11-1,.24-1.95t.27-1.95a142.07,142.07,0,0,1,5.32-23.14c.17-.56.35-1.11.53-1.66s.37-1.09.56-1.63a28.78,28.78,0,0,1,2.7,1.8,17.11,17.11,0,0,0,8,3.6,12.49,12.49,0,0,0,1.51.1,15.51,15.51,0,0,0,9.5-3c3.58-2.55,7.27-4.85,11.64-5.66,7.26-1.34,14.17-.56,20.6,3.54,2.52,1.61,5,3.42,7.78,4.4a13.44,13.44,0,0,0,12.7-1.87c3.65-2.55,7.33-5,11.73-6,8.52-1.83,16.38-.37,23.49,5,3.77,2.86,7.86,4.2,12.22,3.34a13.21,13.21,0,0,0,2.26-.63,30.19,30.19,0,0,0,6.62-3.79c.79-.54,1.58-1,2.38-1.46.19.54.39,1.09.57,1.65s.37,1.11.55,1.67a141.6,141.6,0,0,1,5.49,23.68q.15,1,.27,1.95t.24,1.95A156.07,156.07,0,0,1,180.48,154.26Z"/><path class="cls-5" d="M186.48,170.84v1.95H32.25c-.08-.64-.17-1.3-.23-1.95a158,158,0,0,1-.87-16.58,156.07,156.07,0,0,1,1.1-18.53q.11-1,.24-1.95t.27-1.95a142.07,142.07,0,0,1,5.32-23.14c.17-.56.35-1.11.53-1.66a31.26,31.26,0,0,1,3.26,2.12,17.11,17.11,0,0,0,8,3.6,10.74,10.74,0,0,0,1.51.1,15.51,15.51,0,0,0,9.5-3c3.58-2.55,7.27-4.85,11.64-5.66,7.26-1.34,14.17-.56,20.6,3.54,2.52,1.61,5,3.42,7.78,4.4a13.44,13.44,0,0,0,12.7-1.87c3.65-2.55,7.33-5,11.73-6,8.52-1.83,16.38-.37,23.49,5,3.77,2.86,7.86,4.2,12.22,3.34a13.21,13.21,0,0,0,2.26-.63,30.19,30.19,0,0,0,6.62-3.79,27.3,27.3,0,0,1,3-1.76c.19.55.37,1.11.55,1.67a141.6,141.6,0,0,1,5.49,23.68q.15,1,.27,1.95t.24,1.95a156.07,156.07,0,0,1,1.1,18.53,158,158,0,0,1-.87,16.58Z"/><path class="cls-2" d="M186.48,170.84v3.9h-154q-.14-1-.24-2c-.08-.64-.17-1.3-.23-1.95a158,158,0,0,1-.87-16.58,156.07,156.07,0,0,1,1.1-18.53q.11-1,.24-1.95t.27-1.95a142.07,142.07,0,0,1,5.32-23.14,29.75,29.75,0,0,1,3.79,2.41,17.11,17.11,0,0,0,8,3.6,10.74,10.74,0,0,0,1.51.1,15.51,15.51,0,0,0,9.5-3c3.58-2.55,7.27-4.85,11.64-5.66,7.26-1.34,14.17-.56,20.6,3.54,2.52,1.61,5,3.42,7.78,4.4a13.44,13.44,0,0,0,12.7-1.87c3.65-2.54,7.33-5,11.73-6,8.52-1.83,16.38-.37,23.49,5,3.77,2.86,7.86,4.2,12.22,3.34a14.13,14.13,0,0,0,2.26-.62,30.24,30.24,0,0,0,6.62-3.8,28.39,28.39,0,0,1,3.5-2,141.6,141.6,0,0,1,5.49,23.68q.15,1,.27,1.95t.24,1.95a156.07,156.07,0,0,1,1.1,18.53,158,158,0,0,1-.87,16.58Z"/><path class="cls-4" d="M186.48,170.84v3.9h-7.34A143.13,143.13,0,0,1,174,198.42c-.17.57-.35,1.12-.53,1.68l-.54,1.67a31.74,31.74,0,0,1-3.77-2.39,17,17,0,0,0-8-3.6,10.59,10.59,0,0,0-1.5-.11,15.56,15.56,0,0,0-9.5,3c-3.58,2.56-7.28,4.85-11.64,5.66-7.27,1.35-14.18.57-20.6-3.54a40.91,40.91,0,0,0-7.78-4.4,13.44,13.44,0,0,0-12.7,1.87c-3.66,2.55-7.34,5-11.73,5.95-8.52,1.84-16.39.37-23.49-5-3.77-2.86-7.87-4.19-12.22-3.33a13.26,13.26,0,0,0-2.27.62,31.08,31.08,0,0,0-6.62,3.79,27.24,27.24,0,0,1-2.44,1.51c-.18-.56-.37-1.11-.54-1.67s-.36-1.11-.54-1.68a144.62,144.62,0,0,1-5.14-23.7q-.14-1-.24-2c-.08-.64-.17-1.3-.23-1.95a158,158,0,0,1-.87-16.58,156.07,156.07,0,0,1,1.1-18.53H179.38a156.07,156.07,0,0,1,1.1,18.53,158,158,0,0,1-.87,16.58Z"/><path class="cls-5" d="M186.48,170.84v3.9h-7.34A143.13,143.13,0,0,1,174,198.42c-.17.57-.35,1.12-.53,1.68a30.28,30.28,0,0,1-4.31-2.67,17,17,0,0,0-8-3.6,10.59,10.59,0,0,0-1.5-.11,15.56,15.56,0,0,0-9.5,3c-3.58,2.56-7.28,4.85-11.64,5.66-7.27,1.35-14.18.57-20.6-3.54a40.91,40.91,0,0,0-7.78-4.4,13.44,13.44,0,0,0-12.7,1.87c-3.66,2.55-7.34,5-11.73,6-8.52,1.84-16.39.37-23.49-5-3.77-2.86-7.87-4.19-12.22-3.33a13.26,13.26,0,0,0-2.27.62,31.08,31.08,0,0,0-6.62,3.79,26.42,26.42,0,0,1-3,1.79c-.19-.56-.36-1.11-.54-1.68a144.62,144.62,0,0,1-5.14-23.7q-.14-1-.24-2c-.08-.64-.17-1.3-.23-1.95a158,158,0,0,1-.87-16.58,156.07,156.07,0,0,1,1.1-18.53q.11-1,.24-1.95H179.14q.13,1,.24,1.95a156.07,156.07,0,0,1,1.1,18.53,158,158,0,0,1-.87,16.58Z"/><path class="cls-2" d="M186.48,170.84v3.9h-7.34A143.13,143.13,0,0,1,174,198.42a31,31,0,0,1-4.84-2.94,17,17,0,0,0-8-3.6,10.59,10.59,0,0,0-1.5-.11,15.56,15.56,0,0,0-9.5,3c-3.58,2.56-7.28,4.85-11.64,5.66-7.27,1.35-14.18.57-20.6-3.54a40.91,40.91,0,0,0-7.78-4.4,13.44,13.44,0,0,0-12.7,1.87c-3.66,2.55-7.34,5-11.73,5.95-8.52,1.84-16.39.37-23.49-5-3.77-2.86-7.87-4.19-12.22-3.33a13.26,13.26,0,0,0-2.27.62,31.08,31.08,0,0,0-6.62,3.79,26.89,26.89,0,0,1-3.52,2.06,144.62,144.62,0,0,1-5.14-23.7q-.14-1-.24-2c-.08-.64-.17-1.3-.23-1.95a158,158,0,0,1-.87-16.58,156.07,156.07,0,0,1,1.1-18.53q.11-1,.24-1.95t.27-1.95H178.87q.15,1,.27,1.95t.24,1.95a156.07,156.07,0,0,1,1.1,18.53,158,158,0,0,1-.87,16.58Z"/><polygon class="cls-3" points="198.29 94.55 15.18 94.55 15.18 67.95 174.53 67.95 198.29 94.55"/><polygon class="cls-3" points="16.18 208.36 197.45 208.36 197.45 234.69 39.72 234.69 16.18 208.36"/><path class="cls-1" d="M88.26,159.82,91.69,171l15.5-20.37,3.67,11.92L148,114.8l-.9-.72-30.13,25.09-4.31-9.95L97.73,146.07l-3.33-7.7-37.94,47.2,1,.79Z"/><path class="cls-6" d="M33.51,121.33c2.6,3.21,5.11,6.34,7.66,9.43a1.64,1.64,0,0,0,1.21.39q18.4,0,36.83,0h1v-9.83Zm42.39,6.4a1.48,1.48,0,0,1-1.17-1.59c.1-.9.51-1.42,1.27-1.39s1.18.58,1.23,1.47A1.45,1.45,0,0,1,75.9,127.73Z"/><path class="cls-6" d="M40.73,131.82a2.44,2.44,0,0,0-.55-1.35c-2.29-2.82-4.62-5.61-6.93-8.4-.17-.19-.33-.37-.6-.65v56.43h8a2.39,2.39,0,0,0,.06-.38Q40.75,154.65,40.73,131.82Zm-4,42.39a1.34,1.34,0,0,1-1.3-1.42,1.37,1.37,0,0,1,1.24-1.58c.73,0,1.2.51,1.22,1.46A1.37,1.37,0,0,1,36.75,174.21Z"/><path class="cls-6" d="M42.43,177.76c-.89.36-1-.15-1-.82,0-2.24,0-4.47,0-6.7V132.07H80.24c.31,1.06-.22,1.06-.82,1.06h-37Z"/><path class="cls-2" d="M189.57,185.13H169.1a.32.32,0,0,0-.31.17,1.13,1.13,0,0,1-1,.53h-1.21a1.11,1.11,0,0,1-1-.51.38.38,0,0,0-.37-.19H144.88V156.22h2V153.8h2.7v-1.42l1.54-.06c1.29,0,2.59,0,3.88,0a32.29,32.29,0,0,1,4.39.42,17,17,0,0,1,3.94,1.09,10.1,10.1,0,0,1,3.82,2.65l.07.06c.3-.29.58-.58.88-.86a11.45,11.45,0,0,1,4.13-2.26,22.28,22.28,0,0,1,4.34-.88,52.36,52.36,0,0,1,7.08-.23c.41,0,.81,0,1.22,0v1.4h2.7v2.43h2ZM150.69,179c.54,0,1.05,0,1.56,0,.95,0,1.91.07,2.86.14a29.45,29.45,0,0,1,4.17.58,19.52,19.52,0,0,1,5,1.68c.74.38,1.43.88,2.14,1.32l.22.14V158.51c0-.79,0-.79-.49-1.33a9.56,9.56,0,0,0-4.13-2.52,25.81,25.81,0,0,0-7.34-1.11c-1.09,0-2.18,0-3.28,0h-.73Zm17.09,3.88a14.19,14.19,0,0,1,3.38-1.94,21.25,21.25,0,0,1,5-1.39c1.35-.2,2.71-.37,4.07-.48,1.07-.08,2.14-.06,3.21-.09h.27V153.56h-.11a49,49,0,0,0-7.36.27,20.06,20.06,0,0,0-3.88.84,9.56,9.56,0,0,0-4.42,2.86.69.69,0,0,0-.19.49c0,2.48,0,5,0,7.42,0,2.2,0,4.4,0,6.6q0,5.28,0,10.56Zm-19.77-1h.5c1.8,0,3.61,0,5.41.05,1.52,0,3.05.13,4.57.26,1.06.09,2.12.23,3.17.42s2.37.52,3.55.78l.21,0,0-.07c-.6-.34-1.18-.71-1.8-1a20.78,20.78,0,0,0-4.5-1.47,36.71,36.71,0,0,0-5.89-.71c-.95-.05-1.9,0-2.85,0h-.84V155.05H148Zm21,1.49v0h.07a38.94,38.94,0,0,1,7.41-1.27c1.51-.12,3-.18,4.55-.23s2.87,0,4.31,0h1V155.05h-1.55V180.2h-.14c-1.32,0-2.64,0-4,0a20.71,20.71,0,0,0-2.21.16c-1.17.16-2.35.34-3.51.58a17.32,17.32,0,0,0-4.89,1.74C169.77,183,169.4,183.19,169,183.41Z"/><path class="cls-4" d="M150.69,179V153.53h.73c1.1,0,2.19,0,3.28,0a25.81,25.81,0,0,1,7.34,1.11,9.56,9.56,0,0,1,4.13,2.52c.5.54.5.54.49,1.33v24.35l-.22-.14c-.71-.44-1.4-.94-2.14-1.32a19.52,19.52,0,0,0-5-1.68,29.45,29.45,0,0,0-4.17-.58c-1-.07-1.91-.11-2.86-.14C151.74,179,151.23,179,150.69,179Z"/><path class="cls-4" d="M167.78,182.87v-.28q0-5.28,0-10.56c0-2.2,0-4.4,0-6.6,0-2.47,0-4.94,0-7.42a.69.69,0,0,1,.19-.49,9.56,9.56,0,0,1,4.42-2.86,20.06,20.06,0,0,1,3.88-.84,49,49,0,0,1,7.36-.27h.11V179h-.27c-1.07,0-2.14,0-3.21.09-1.36.11-2.72.28-4.07.48a21.25,21.25,0,0,0-5,1.39A14.19,14.19,0,0,0,167.78,182.87Z"/><path class="cls-4" d="M148,181.92V155.05h1.55v25.16h.84c.95,0,1.9,0,2.85,0a36.71,36.71,0,0,1,5.89.71,20.78,20.78,0,0,1,4.5,1.47c.62.29,1.2.66,1.8,1l0,.07-.21,0c-1.18-.26-2.36-.56-3.55-.78s-2.11-.33-3.17-.42c-1.52-.13-3.05-.22-4.57-.26-1.8-.05-3.61,0-5.41-.05Z"/><path class="cls-4" d="M169,183.41c.37-.22.74-.46,1.12-.67A17.32,17.32,0,0,1,175,181c1.16-.24,2.34-.42,3.51-.58a20.71,20.71,0,0,1,2.21-.16c1.33,0,2.65,0,4,0h.14V155.05h1.55v26.87h-1c-1.44,0-2.88,0-4.31,0s-3,.11-4.55.23a38.94,38.94,0,0,0-7.41,1.27H169Z"/><text class="cls-7" transform="translate(39.6 87.11) scale(0.92 1)">KNOWLEDGE</text><text class="cls-7" transform="translate(34.3 225.57) scale(0.92 1)">with INTEGRIT<tspan class="cls-8" x="143.08" y="0">Y</tspan></text></g></g></svg>